<svg width="1600" height="900" viewBox="0 0 1600 900" fill="none" xmlns="http://www.w3.org/2000/svg">
  <defs>
    <linearGradient id="bg" x1="220" y1="80" x2="1340" y2="860" gradientUnits="userSpaceOnUse">
      <stop stop-color="#08111F"/>
      <stop offset="0.52" stop-color="#081A2D"/>
      <stop offset="1" stop-color="#020617"/>
    </linearGradient>
    <radialGradient id="sun" cx="0" cy="0" r="1" gradientUnits="userSpaceOnUse" gradientTransform="translate(1180 180) rotate(127.841) scale(444.809 350.813)">
      <stop stop-color="#F7A64C" stop-opacity="0.85"/>
      <stop offset="0.35" stop-color="#F97316" stop-opacity="0.42"/>
      <stop offset="1" stop-color="#F97316" stop-opacity="0"/>
    </radialGradient>
    <radialGradient id="cyanGlow" cx="0" cy="0" r="1" gradientUnits="userSpaceOnUse" gradientTransform="translate(340 240) rotate(41.2453) scale(352.919 312.308)">
      <stop stop-color="#38BDF8" stop-opacity="0.4"/>
      <stop offset="1" stop-color="#38BDF8" stop-opacity="0"/>
    </radialGradient>
    <linearGradient id="panel" x1="410" y1="498" x2="1194" y2="753" gradientUnits="userSpaceOnUse">
      <stop stop-color="#0F172A" stop-opacity="0.92"/>
      <stop offset="1" stop-color="#111F3A" stop-opacity="0.98"/>
    </linearGradient>
    <linearGradient id="panelEdge" x1="453.5" y1="470" x2="1254.5" y2="734" gradientUnits="userSpaceOnUse">
      <stop stop-color="#1E3A5F"/>
      <stop offset="1" stop-color="#1E293B"/>
    </linearGradient>
  </defs>

  <rect width="1600" height="900" fill="url(#bg)"/>
  <rect width="1600" height="900" fill="url(#sun)"/>
  <rect width="1600" height="900" fill="url(#cyanGlow)"/>

  <g opacity="0.22">
    <path d="M0 120H1600" stroke="#94A3B8" stroke-width="1"/>
    <path d="M0 240H1600" stroke="#94A3B8" stroke-width="1"/>
    <path d="M0 360H1600" stroke="#94A3B8" stroke-width="1"/>
    <path d="M0 480H1600" stroke="#94A3B8" stroke-width="1"/>
    <path d="M0 600H1600" stroke="#94A3B8" stroke-width="1"/>
    <path d="M0 720H1600" stroke="#94A3B8" stroke-width="1"/>
    <path d="M160 0V900" stroke="#94A3B8" stroke-width="1"/>
    <path d="M320 0V900" stroke="#94A3B8" stroke-width="1"/>
    <path d="M480 0V900" stroke="#94A3B8" stroke-width="1"/>
    <path d="M640 0V900" stroke="#94A3B8" stroke-width="1"/>
    <path d="M800 0V900" stroke="#94A3B8" stroke-width="1"/>
    <path d="M960 0V900" stroke="#94A3B8" stroke-width="1"/>
    <path d="M1120 0V900" stroke="#94A3B8" stroke-width="1"/>
    <path d="M1280 0V900" stroke="#94A3B8" stroke-width="1"/>
    <path d="M1440 0V900" stroke="#94A3B8" stroke-width="1"/>
  </g>

  <g opacity="0.55">
    <path d="M460 466L1254 728" stroke="url(#panelEdge)" stroke-width="4"/>
    <path d="M410 532L1194 786" stroke="url(#panelEdge)" stroke-width="4"/>
    <path d="M362 592L1142 844" stroke="url(#panelEdge)" stroke-width="4"/>
    <path d="M516 432L1304 692" stroke="url(#panelEdge)" stroke-width="4"/>
  </g>

  <g>
    <path d="M454 472L1248 734L1180 812L386 548L454 472Z" fill="url(#panel)" stroke="#1E3A5F" stroke-width="2"/>
    <path d="M506 438L1300 700L1232 778L438 514L506 438Z" fill="url(#panel)" stroke="#29486F" stroke-width="2"/>
    <path d="M558 404L1352 666L1284 744L490 480L558 404Z" fill="url(#panel)" stroke="#365E90" stroke-width="2"/>
  </g>

  <g opacity="0.52">
    <path d="M527 474L1202 694" stroke="#38BDF8" stroke-width="2"/>
    <path d="M495 513L1170 733" stroke="#38BDF8" stroke-width="2"/>
    <path d="M463 553L1138 773" stroke="#38BDF8" stroke-width="2"/>
    <path d="M587 455L1262 675" stroke="#38BDF8" stroke-width="2"/>
    <path d="M647 435L1322 655" stroke="#38BDF8" stroke-width="2"/>
    <path d="M530 476L477 541" stroke="#38BDF8" stroke-width="2"/>
    <path d="M604 500L551 565" stroke="#38BDF8" stroke-width="2"/>
    <path d="M678 524L625 589" stroke="#38BDF8" stroke-width="2"/>
    <path d="M752 548L699 613" stroke="#38BDF8" stroke-width="2"/>
    <path d="M826 572L773 637" stroke="#38BDF8" stroke-width="2"/>
    <path d="M900 596L847 661" stroke="#38BDF8" stroke-width="2"/>
    <path d="M974 620L921 685" stroke="#38BDF8" stroke-width="2"/>
    <path d="M1048 644L995 709" stroke="#38BDF8" stroke-width="2"/>
    <path d="M1122 668L1069 733" stroke="#38BDF8" stroke-width="2"/>
    <path d="M1196 692L1143 757" stroke="#38BDF8" stroke-width="2"/>
  </g>

  <g opacity="0.4">
    <path d="M132 174C226 126 312 118 388 148" stroke="#38BDF8" stroke-width="2"/>
    <path d="M260 130L388 148L330 272" stroke="#38BDF8" stroke-width="2"/>
    <circle cx="388" cy="148" r="8" fill="#38BDF8"/>

    <path d="M1170 250C1234 238 1288 258 1332 304" stroke="#F59E0B" stroke-width="2"/>
    <path d="M1288 258L1364 250L1332 324" stroke="#F59E0B" stroke-width="2"/>
    <circle cx="1288" cy="258" r="8" fill="#F59E0B"/>
  </g>

  <g opacity="0.7">
    <circle cx="1188" cy="184" r="6" fill="#FFF2D7"/>
    <circle cx="1136" cy="210" r="3" fill="#FFF2D7"/>
    <circle cx="1218" cy="134" r="3" fill="#FFF2D7"/>
  </g>

  <rect width="1600" height="900" fill="url(#bg)" opacity="0.18"/>
</svg>
